<svg width="22" height="13" viewBox="0 0 22 13" fill="none" xmlns="http://www.w3.org/2000/svg">
<path d="M14.9543 1.45183e-06C15.0378 -0.000177304 15.1205 0.0161525 15.1976 0.0480504C15.2747 0.0799483 15.3448 0.126784 15.4037 0.185863L20.989 5.77111C21.1076 5.89056 21.1742 6.0521 21.1742 6.22047C21.1742 6.38885 21.1076 6.55039 20.989 6.66983L15.4037 12.2551C15.2845 12.3743 15.1229 12.4412 14.9543 12.4412C14.7858 12.4412 14.6242 12.3743 14.505 12.2551C14.3858 12.1359 14.3189 11.9743 14.3189 11.8057C14.3189 11.6372 14.3858 11.4755 14.505 11.3564L19.6409 6.22047L14.505 1.08458C14.4161 0.995745 14.3555 0.882525 14.331 0.759254C14.3064 0.635983 14.319 0.508201 14.3671 0.392083C14.4152 0.275964 14.4967 0.176728 14.6012 0.106934C14.7058 0.0371402 14.8287 -7.41588e-05 14.9543 1.45183e-06Z" fill="white"/>
<path d="M0.635222 5.58533H19.7436C19.9121 5.58533 20.0737 5.65225 20.1928 5.77138C20.3119 5.89051 20.3789 6.05208 20.3789 6.22055C20.3789 6.38902 20.3119 6.55059 20.1928 6.66972C20.0737 6.78885 19.9121 6.85577 19.7436 6.85577H0.635222C0.466751 6.85577 0.305179 6.78885 0.186052 6.66972C0.066925 6.55059 0 6.38902 0 6.22055C0 6.05208 0.066925 5.89051 0.186052 5.77138C0.305179 5.65225 0.466751 5.58533 0.635222 5.58533Z" fill="white"/>
</svg>
